<svg width="24" height="24" viewBox="0 0 24 24" fill="none" xmlns="http://www.w3.org/2000/svg">
<path d="M19.5429 24H15.6571V21.4857H19.5429C20.0581 21.4857 20.5523 21.281 20.9167 20.9167C21.281 20.5523 21.4857 20.0581 21.4857 19.5429V15.6571H24V19.5429C23.9986 20.7245 23.5286 21.8574 22.693 22.693C21.8574 23.5286 20.7245 23.9986 19.5429 24ZM24 8.34286H21.4857V4.45714C21.4857 3.94187 21.281 3.44769 20.9167 3.08334C20.5523 2.71898 20.0581 2.51429 19.5429 2.51429H15.6571V0H19.5429C20.7245 0.00136113 21.8574 0.471389 22.693 1.30697C23.5286 2.14255 23.9986 3.27545 24 4.45714V8.34286ZM8.34286 24H4.45714C3.27545 23.9986 2.14255 23.5286 1.30697 22.693C0.471389 21.8574 0.00136113 20.7245 0 19.5429V15.6571H2.51429V19.5429C2.51429 20.0581 2.71898 20.5523 3.08334 20.9167C3.44769 21.281 3.94187 21.4857 4.45714 21.4857H8.34286V24ZM2.51429 8.34286H0V4.45714C0.00136113 3.27545 0.471389 2.14255 1.30697 1.30697C2.14255 0.471389 3.27545 0.00136113 4.45714 0H8.34286V2.51429H4.45714C3.94187 2.51429 3.44769 2.71898 3.08334 3.08334C2.71898 3.44769 2.51429 3.94187 2.51429 4.45714V8.34286Z" fill="black"/>
<path d="M12 2V22M2 12H22" stroke="black" stroke-width="2" stroke-linecap="round" stroke-linejoin="round"/>
</svg>
